Patient5_TMGait_0pt45_1_right_03_GRF.mot
version=1
nRows=65
nColumns=19
inDegrees=no
endheader
time	F1x	F1y	F1z	M1x	M1y	M1z	F2x	F2y	F2z	M2x	M2y	M2z	EC1x	EC1y	EC1z	EC2x	EC2y	EC2z
4.47	36.0831	887.4061	30.2789	-333.7338	-11.1167	796.0314	-5.7266	5.2522	-3.4402	1.7495	5.5144	13.0468	-0.0592	0.0182	-0.0073	-0.0462	0.0165	0.9585
4.4866	34.8851	881.4079	30.0823	-331.8111	-11.1296	787.1575	-3.3688	3.2812	-2.0014	1.1383	3.2656	7.9361	-0.0592	0.0182	-0.0073	-0.0462	0.0165	0.9585
4.5033	34.3795	874.1149	30.0303	-329.3251	-11.163	776.297	-1.5282	1.7314	-0.89477	0.65944	1.5141	3.9683	-0.0592	0.0182	-0.0073	-0.0462	0.0165	0.9585
4.5199	34.4355	866.4951	30.0903	-326.5999	-11.2255	764.7163	-0.31732	0.71136	-0.1846	0.34558	0.37105	1.3887	-0.0592	0.0182	-0.0073	-0.0462	0.0165	0.9585
4.5366	34.7717	859.6025	30.198	-324.019	-11.3217	753.7611	0.36204	0.16443	0.1987	0.17629	-0.25678	0.0053667	-0.0592	0.0182	-0.0073	-0.0462	0.0165	0.9585
4.5532	35.1082	854.1399	30.3212	-321.8406	-11.4817	744.3557	0.66695	-0.02474	0.35815	0.11414	-0.52369	-0.52696	-0.0592	0.0182	-0.0073	-0.0462	0.0165	0.9585
4.5699	35.2066	850.268	30.4625	-320.1248	-11.7611	736.825	0.73586	0.016941	0.39443	0.12038	-0.57947	-0.5413	-0.0592	0.0182	-0.0073	-0.0462	0.0165	0.9585
4.5865	34.9182	847.6906	30.6535	-318.7566	-12.223	730.9705	0.68302	0.18775	0.3805	0.16691	-0.53638	-0.28417	-0.0592	0.0182	-0.0073	-0.0462	0.0165	0.9585
4.6031	34.2458	845.9722	30.9549	-317.564	-12.9048	726.3582	0.59072	0.42081	0.35991	0.23448	-0.466	0.082244	-0.0592	0.0182	-0.0073	-0.0462	0.0165	0.9585
4.6198	33.3507	844.7791	31.4528	-316.4123	-13.8037	722.5804	0.49332	0.65059	0.34572	0.30077	-0.40272	0.44218	-0.0592	0.0182	-0.0073	-0.0462	0.0165	0.9585
4.6364	32.4962	843.9011	32.2313	-315.2173	-14.8776	719.2846	0.39994	0.80262	0.33604	0.33982	-0.35713	0.69545	-0.0592	0.0182	-0.0073	-0.0462	0.0165	0.9585
4.6531	31.9625	843.2252	33.3756	-313.9372	-16.0909	716.1898	0.31624	0.76531	0.33305	0.31116	-0.32928	0.71516	-0.0592	0.0182	-0.0073	-0.0462	0.0165	0.9585
4.6697	32.0029	842.7057	34.9785	-312.5788	-17.4334	713.0736	0.25025	0.38944	0.33155	0.15656	-0.31	0.33823	-0.0592	0.0182	-0.0073	-0.0462	0.0165	0.9585
4.6864	32.8159	842.3682	37.0866	-311.2194	-18.8953	709.8267	0.21575	-0.487	0.34094	-0.19074	-0.31331	-0.61786	-0.0592	0.0182	-0.0073	-0.0462	0.0165	0.9585
4.703	34.5386	842.3351	39.6036	-310.0105	-20.3835	706.4771	0.24707	-2.0193	0.35646	-0.79451	-0.35191	-2.3061	-0.0592	0.0182	-0.0073	-0.0462	0.0165	0.9585
4.7196	37.27	842.8321	42.3076	-309.1476	-21.7148	703.1661	0.39212	-4.2567	0.37527	-1.6779	-0.43863	-4.7616	-0.0592	0.0182	-0.0073	-0.0462	0.0165	0.9585
4.7363	41.0225	844.0405	45.0158	-308.7859	-22.7541	700.02	0.69011	-6.9666	0.3946	-2.7542	-0.58646	-7.7096	-0.0592	0.0182	-0.0073	-0.0462	0.0165	0.9585
4.7529	45.6478	845.8761	47.6512	-308.9518	-23.4893	696.9801	1.1702	-9.4337	0.39402	-3.7431	-0.79246	-10.3776	-0.0592	0.0182	-0.0073	-0.0462	0.0165	0.9585
4.7696	50.857	847.9093	50.1391	-309.5117	-23.9436	693.7534	1.8375	-10.1932	0.36135	-4.0683	-1.0414	-11.1763	-0.0592	0.0182	-0.0073	-0.0462	0.0165	0.9585
4.7862	56.376	849.3367	52.398	-310.1552	-24.1177	689.766	2.6159	-6.7785	0.26027	-2.7585	-1.2531	-7.436	-0.0592	0.0182	-0.0073	-0.0462	0.0165	0.9585
4.8029	62.0254	849.0915	54.381	-310.4339	-23.9855	684.2528	3.2629	4.3254	0.033208	1.5767	-1.2492	4.6341	-0.0592	0.0182	-0.0073	-0.0462	0.0165	0.9585
4.8195	67.7188	846.0739	56.0067	-309.87	-23.4533	676.4393	3.2936	27.2556	-0.38235	10.5871	-0.74838	29.4893	-0.0592	0.0182	-0.0073	-0.0462	0.0165	0.9585
4.8361	73.3885	839.3045	57.0367	-308.0351	-22.3104	665.665	1.9192	65.5201	-1.0188	25.6953	0.62166	70.9023	-0.0592	0.0182	-0.0073	-0.0462	0.0165	0.9585
4.8528	78.9195	827.9108	57.0588	-304.5594	-20.2484	651.3785	-1.9107	119.6176	-1.86	47.163	3.2864	129.3924	-0.0592	0.0182	-0.0073	-0.0462	0.0165	0.9585
4.8694	84.134	810.9623	55.5897	-299.0673	-16.9446	633.0013	-8.935	184.6368	-2.6992	73.0878	7.309	199.7232	-0.0592	0.0182	-0.0073	-0.0462	0.0165	0.9585
4.8861	88.7699	787.3994	52.2518	-291.1245	-12.2161	609.8942	-18.8689	250.4005	-3.5231	99.349	12.4541	271.0784	-0.0592	0.0182	-0.0073	-0.0462	0.0165	0.9585
4.9027	92.4983	756.155	47.0358	-280.2697	-6.2203	581.4083	-29.8083	305.4588	-5.7828	121.0848	19.3427	331.2501	-0.0592	0.0182	-0.0073	-0.0462	0.0165	0.9585
4.9194	94.9948	716.4645	40.4373	-266.1215	0.48392	547.0862	-39.6389	343.5613	-11.413	135.5153	29.0352	373.4242	-0.0592	0.0182	-0.0073	-0.0462	0.0165	0.9585
4.936	95.9862	668.0742	33.2701	-248.4658	7.1234	506.8485	-47.5564	367.8554	-19.2799	143.9491	40.1277	400.7082	-0.0592	0.0182	-0.0073	-0.0462	0.0165	0.9585
4.9526	95.1883	611.0932	26.3462	-227.2657	12.9265	460.8656	-53.6864	384.6471	-27.0334	149.213	50.3579	419.5323	-0.0592	0.0182	-0.0073	-0.0462	0.0165	0.9585
4.9693	92.2047	546.0828	20.0853	-202.744	17.3621	409.6292	-58.2479	400.1439	-32.8278	154.1146	57.9846	436.1493	-0.0592	0.0182	-0.0073	-0.0462	0.0165	0.9585
4.9859	86.5905	474.4353	14.6026	-175.528	20.1066	354.2434	-61.1566	420.0012	-35.9837	161.1226	62.3023	456.1444	-0.0592	0.0182	-0.0073	-0.0462	0.0165	0.9585
5.0026	78.0725	398.7153	9.8896	-146.7453	21.0157	296.6492	-62.3395	448.3833	-37.1738	171.9742	63.9269	483.6189	-0.0592	0.0182	-0.0073	-0.0462	0.0165	0.9585
5.0192	66.8186	322.5489	5.8927	-117.9248	20.1778	239.4734	-62.1023	487.4888	-37.2828	187.5558	63.843	520.7192	-0.0592	0.0182	-0.0073	-0.0462	0.0165	0.9585
5.0359	53.6374	250.0514	2.6235	-90.7179	17.9086	185.5996	-61.0509	537.8253	-36.798	208.0462	62.7839	567.9118	-0.0592	0.0182	-0.0073	-0.0462	0.0165	0.9585
5.0525	39.8927	184.9474	0.23898	-66.5356	14.6454	137.5469	-59.7034	598.2013	-36.3116	232.8943	61.5394	623.993	-0.0592	0.0182	-0.0073	-0.0462	0.0165	0.9585
5.0691	27.052	129.8384	-1.157	-46.2946	10.9145	96.9854	-58.1373	665.308	-36.3713	260.6716	60.6731	685.6136	-0.0592	0.0182	-0.0073	-0.0462	0.0165	0.9585
5.0858	16.2085	85.8783	-1.6772	-30.3369	7.2553	64.6036	-55.9351	733.9833	-37.0605	289.2134	60.1032	747.5529	-0.0592	0.0182	-0.0073	-0.0462	0.0165	0.9585
5.1024	7.9111	52.7992	-1.5773	-18.4734	4.0876	40.1601	-52.5053	798.2113	-38.2274	316.0034	59.4551	803.8673	-0.0592	0.0182	-0.0073	-0.0462	0.0165	0.9585
5.1191	2.2478	29.3246	-1.1463	-10.157	1.6641	22.7296	-47.352	852.289	-39.8324	338.6136	58.4882	849.1455	-0.0592	0.0182	-0.0073	-0.0462	0.0165	0.9585
5.1357	-0.96788	13.7553	-0.6414	-4.7084	0.09937	11.0882	-40.2874	891.9802	-42.0631	355.1829	57.2909	879.6197	-0.0592	0.0182	-0.0073	-0.0462	0.0165	0.9585
5.1524	-2.1637	4.3786	-0.24843	-1.47	-0.6301	4.0142	-31.7127	915.3924	-45.0847	364.8301	56.1759	893.96	-0.0592	0.0182	-0.0073	-0.0462	0.0165	0.9585
5.169	-2.1109	-0.35851	-0.034355	0.13706	-0.74999	0.39665	-22.7943	923.2272	-48.6234	367.821	55.3689	893.4213	-0.0592	0.0182	-0.0073	-0.0462	0.0165	0.9585
5.1856	-1.5027	-1.9949	0.051352	0.67076	-0.56593	-0.86672	-15.0914	918.2102	-52.0177	365.3387	54.906	881.16	-0.0592	0.0182	-0.0073	-0.0462	0.0165	0.9585
5.2023	-0.76786	-1.8702	0.063064	0.6067	-0.28691	-0.76871	-9.7282	904.1051	-54.6148	359.0236	54.6654	861.1272	-0.0592	0.0182	-0.0073	-0.0462	0.0165	0.9585
5.2189	-0.13769	-0.94512	0.030465	0.27757	-0.023331	-0.050983	-6.8294	885.0079	-56.076	350.6275	54.4061	837.3022	-0.0592	0.0182	-0.0073	-0.0462	0.0165	0.9585
5.2356	0.30935	0.17702	-0.008095	-0.11515	0.16379	0.82711	-5.6613	864.8153	-56.5104	341.7749	53.9293	813.2261	-0.0592	0.0182	-0.0073	-0.0462	0.0165	0.9585
5.2522	0.58069	1.1594	-0.034049	-0.46385	0.26601	1.6007	-5.1394	846.6858	-56.2946	333.7648	53.1303	791.5938	-0.0592	0.0182	-0.0073	-0.0462	0.0165	0.9585
5.2689	0.70908	1.8769	-0.039194	-0.72633	0.29812	2.175	-4.2183	832.6623	-55.7399	327.4506	51.8655	773.9723	-0.0592	0.0182	-0.0073	-0.0462	0.0165	0.9585
5.2855	0.72813	2.2843	-0.0015812	-0.88208	0.25863	2.5096	-2.1578	823.6503	-55.0144	323.2338	49.9963	760.8856	-0.0592	0.0182	-0.0073	-0.0462	0.0165	0.9585
5.3021	0.67477	2.3338	0.093226	-0.90833	0.14834	2.5234	1.3494	819.7338	-54.2253	321.1696	47.5118	752.1792	-0.0592	0.0182	-0.0073	-0.0462	0.0165	0.9585
5.3188	0.56995	1.9433	0.25914	-0.76447	-0.043714	2.0944	6.1576	820.4706	-53.4723	321.0708	44.5674	747.34	-0.0592	0.0182	-0.0073	-0.0462	0.0165	0.9585
5.3354	0.42021	0.99537	0.50957	-0.39836	-0.34901	1.0766	11.8009	825.024	-52.8508	322.5688	41.4387	745.616	-0.0592	0.0182	-0.0073	-0.0462	0.0165	0.9585
5.3521	0.24	-0.61027	0.83918	0.2316	-0.77653	-0.65002	17.6411	832.3452	-52.438	325.1948	38.4573	746.166	-0.0592	0.0182	-0.0073	-0.0462	0.0165	0.9585
5.3687	0.063852	-2.8802	1.2096	1.1236	-1.2781	-3.1169	23.0525	841.386	-52.2402	328.476	35.8904	748.1963	-0.0592	0.0182	-0.0073	-0.0462	0.0165	0.9585
5.3854	-0.070753	-5.5577	1.5074	2.1699	-1.7028	-6.0595	27.6023	851.1353	-52.188	331.9613	33.8539	750.9567	-0.0592	0.0182	-0.0073	-0.0462	0.0165	0.9585
5.402	-0.082712	-7.9133	1.5014	3.0745	-1.7432	-8.6838	31.11	860.4479	-52.2227	335.1629	32.369	753.556	-0.0592	0.0182	-0.0073	-0.0462	0.0165	0.9585
5.4186	0.17549	-8.479	0.81425	3.2494	-0.90248	-9.3903	33.5727	867.9807	-52.2899	337.5246	31.381	754.9211	-0.0592	0.0182	-0.0073	-0.0462	0.0165	0.9585
5.4353	0.92146	-4.8126	-1.0822	1.7288	1.5139	-5.4984	35.0015	872.3192	-52.378	338.4727	30.8542	753.9512	-0.0592	0.0182	-0.0073	-0.0462	0.0165	0.9585
5.4519	2.4112	6.5179	-4.7893	-2.833	6.304	6.7795	35.3453	872.0492	-52.5328	337.4498	30.8281	749.5763	-0.0592	0.0182	-0.0073	-0.0462	0.0165	0.9585
5.4686	4.8575	29.4779	-10.7778	-11.9798	14.1064	31.8392	34.5143	865.8047	-52.7695	333.9393	31.3322	740.761	-0.0592	0.0182	-0.0073	-0.0462	0.0165	0.9585
5.4852	8.2799	67.3298	-18.9915	-26.9581	24.8849	73.3299	32.4265	852.36	-52.9909	327.5056	32.2989	726.5744	-0.0592	0.0182	-0.0073	-0.0462	0.0165	0.9585
5.5019	11.9475	120.524	-28.242	-47.8705	37.0374	131.8595	29.1201	830.7458	-52.9633	317.8397	33.5089	706.2345	-0.0592	0.0182	-0.0073	-0.0462	0.0165	0.9585
5.5185	12.9091	184.6218	-35.6454	-72.8274	46.2322	202.701	24.8265	800.4327	-52.3432	304.827	34.5956	679.2391	-0.0592	0.0182	-0.0073	-0.0462	0.0165	0.9585
5.5351	8.4386	251.515	-37.2716	-98.4677	47.1062	277.2028	20.0207	761.4227	-50.7672	288.5837	35.0991	645.4146	-0.0592	0.0182	-0.0073	-0.0462	0.0165	0.9585
